<svg width="254" height="72" viewBox="0 0 254 72" fill="none" xmlns="http://www.w3.org/2000/svg">
<rect x="209" width="45" height="71" fill="#3B3B3B"/>
<path d="M32.0938 37.8047C32.0938 51.0703 27.5 57.7031 18.3125 57.7031C12.5469 57.7031 8.66797 55.5469 6.67578 51.2344H6.5C6.59375 51.4219 6.64062 53.3672 6.64062 57.0703V71.9414H0.277344V26.8359C0.277344 22.8516 0.207031 20.2266 0.0664062 18.9609H6.21875C6.24219 19.0547 6.27734 19.4063 6.32422 20.0156C6.37109 20.6016 6.41797 21.4805 6.46484 22.6523C6.53516 23.8008 6.57031 24.6562 6.57031 25.2188H6.71094C7.88281 22.7578 9.37109 20.9766 11.1758 19.875C13.0039 18.75 15.3828 18.1875 18.3125 18.1875C22.9531 18.1875 26.4102 19.793 28.6836 23.0039C30.957 26.1914 32.0938 31.125 32.0938 37.8047ZM25.5547 37.8047C25.5547 32.5078 24.8398 28.7344 23.4102 26.4844C21.9805 24.2109 19.7305 23.0742 16.6602 23.0742C13.1211 23.0742 10.5664 24.3633 8.99609 26.9414C7.42578 29.4961 6.64062 33.375 6.64062 38.5781C6.64062 43.5703 7.42578 47.2266 8.99609 49.5469C10.5664 51.8672 13.0977 53.0273 16.5898 53.0273C19.707 53.0273 21.9805 51.8438 23.4102 49.4766C24.8398 47.1094 25.5547 43.2188 25.5547 37.8047ZM74.2812 46.1367C74.2812 49.7461 72.9102 52.582 70.168 54.6445C67.4492 56.6836 63.6758 57.7031 58.8477 57.7031C54.0195 57.7031 50.3398 56.9531 47.8086 55.4531C45.3008 53.9297 43.6602 51.5391 42.8867 48.2812L48.4766 47.1914C48.9219 49.207 49.8711 50.6836 51.3242 51.6211C52.8008 52.5352 55.3086 52.9922 58.8477 52.9922C65.1758 52.9922 68.3398 50.9883 68.3398 46.9805C68.3398 45.4805 67.7656 44.2734 66.6172 43.3594C65.4688 42.4219 63.7109 41.6602 61.3438 41.0742C55.1562 39.5508 51.2305 38.3555 49.5664 37.4883C47.9023 36.6211 46.625 35.543 45.7344 34.2539C44.8438 32.9414 44.3984 31.3125 44.3984 29.3672C44.3984 25.9219 45.6406 23.2266 48.125 21.2812C50.6094 19.3359 54.207 18.3633 58.918 18.3633C63.043 18.3633 66.3359 19.1484 68.7969 20.7188C71.2578 22.2656 72.793 24.5273 73.4023 27.5039L67.707 28.207C67.4492 26.5195 66.6172 25.2422 65.2109 24.375C63.8047 23.5078 61.707 23.0742 58.918 23.0742C53.1758 23.0742 50.3047 24.8438 50.3047 28.3828C50.3047 29.7891 50.7852 30.9141 51.7461 31.7578C52.7305 32.6016 54.3008 33.2812 56.457 33.7969L60.6406 34.8867C64.4609 35.8242 67.2031 36.75 68.8672 37.6641C70.5547 38.5781 71.8789 39.7266 72.8398 41.1094C73.8008 42.4688 74.2812 44.1445 74.2812 46.1367ZM91.5781 39.3164C91.5781 43.582 92.5156 46.9219 94.3906 49.3359C96.2891 51.75 98.8789 52.957 102.16 52.957C104.574 52.957 106.684 52.4414 108.488 51.4102C110.316 50.3555 111.535 48.9258 112.145 47.1211L117.699 48.7031C116.668 51.6094 114.77 53.8359 112.004 55.3828C109.262 56.9297 105.98 57.7031 102.16 57.7031C96.6289 57.7031 92.375 55.9805 89.3984 52.5352C86.4219 49.0898 84.9336 44.1562 84.9336 37.7344C84.9336 31.4766 86.3867 26.6719 89.293 23.3203C92.2227 19.9453 96.4414 18.2578 101.949 18.2578C107.457 18.2578 111.629 19.9336 114.465 23.2852C117.301 26.6367 118.719 31.6992 118.719 38.4727V39.3164H91.5781ZM102.02 22.9336C98.8789 22.9336 96.3945 23.9648 94.5664 26.0273C92.7383 28.0664 91.7656 30.8789 91.6484 34.4648H112.18C111.523 26.7773 108.137 22.9336 102.02 22.9336ZM136.332 18.9609V43.0781C136.332 46.7344 136.906 49.2773 138.055 50.707C139.203 52.1133 141.254 52.8164 144.207 52.8164C147.23 52.8164 149.621 51.7852 151.379 49.7227C153.137 47.6602 154.016 44.7539 154.016 41.0039V18.9609H160.379V48.8789C160.379 53.3086 160.449 56.0156 160.59 57H154.613C154.59 56.8828 154.566 56.5664 154.543 56.0508C154.52 55.5352 154.484 54.9492 154.438 54.293C154.414 53.6133 154.379 52.3477 154.332 50.4961H154.227C152.773 53.1211 151.086 54.9844 149.164 56.0859C147.266 57.1641 144.898 57.7031 142.062 57.7031C137.891 57.7031 134.832 56.6719 132.887 54.6094C130.965 52.5234 130.004 49.0898 130.004 44.3086V18.9609H136.332ZM197.047 50.8828C195.898 53.3438 194.375 55.1367 192.477 56.2617C190.578 57.3633 188.211 57.9141 185.375 57.9141C180.641 57.9141 177.16 56.2852 174.934 53.0273C172.707 49.7695 171.594 44.8594 171.594 38.2969C171.594 25.0312 176.188 18.3984 185.375 18.3984C188.211 18.3984 190.578 18.9023 192.477 19.9102C194.398 20.918 195.934 22.5703 197.082 24.8672H197.152L197.082 19.5586V4.82812H203.41V49.1602C203.41 53.1211 203.48 55.7344 203.621 57H197.574C197.48 56.6484 197.398 55.793 197.328 54.4336C197.258 53.0742 197.223 51.8906 197.223 50.8828H197.047ZM178.133 38.0859C178.133 43.2891 178.824 47.0859 180.207 49.4766C181.613 51.8438 183.887 53.0273 187.027 53.0273C190.449 53.0273 192.98 51.7969 194.621 49.3359C196.262 46.8516 197.082 42.9141 197.082 37.5234C197.082 32.4844 196.285 28.8164 194.691 26.5195C193.121 24.2227 190.59 23.0742 187.098 23.0742C183.934 23.0742 181.648 24.2812 180.242 26.6953C178.836 29.1094 178.133 32.9062 178.133 38.0859Z" fill="#3B3B3B"/>
<path d="M248.551 37.9453C248.551 44.3438 247.074 49.2422 244.121 52.6406C241.191 56.0156 236.949 57.7031 231.395 57.7031C225.957 57.7031 221.785 55.9922 218.879 52.5703C215.996 49.1484 214.555 44.2734 214.555 37.9453C214.555 31.4062 216.031 26.4961 218.984 23.2148C221.961 19.9102 226.168 18.2578 231.605 18.2578C237.324 18.2578 241.578 19.8867 244.367 23.1445C247.156 26.4023 248.551 31.3359 248.551 37.9453ZM241.906 37.9453C241.906 32.9062 241.098 29.1445 239.48 26.6602C237.887 24.1758 235.297 22.9336 231.711 22.9336C228.078 22.9336 225.418 24.1992 223.73 26.7305C222.043 29.2617 221.199 33 221.199 37.9453C221.199 42.8672 222.043 46.6172 223.73 49.1953C225.418 51.75 227.949 53.0273 231.324 53.0273C235.051 53.0273 237.746 51.7734 239.41 49.2656C241.074 46.7578 241.906 42.9844 241.906 37.9453Z" fill="white"/>
</svg>
